#N canvas 0 50 1366 686 10;
#X obj 143 106 osc~ 220;
#X obj 151 186 dac~;
#X obj 136 20 bng 15 250 50 0 empty bangOn ON 17 7 0 10 -4034 -1 -1
;
#X text 336 61 <-Click to start;
#X obj 136 58 bng 15 250 50 0 empty bangOff OFF 17 7 0 10 -258113 -1
-1;
#X obj 145 143 *~ 0.7;
#X obj 80 141 adc~;
#X msg 252 102 \; pd dsp 0 \;;
#X msg 259 40 \; pd dsp 1 \;;
#X connect 0 0 5 0;
#X connect 2 0 8 0;
#X connect 4 0 7 0;
#X connect 6 0 1 0;
#X connect 6 1 1 1;
