#N canvas 47 119 1366 686 10;
#X msg 373 210 bang;
#X obj 243 299 bonk~;
#X msg 373 30 learn 1;
#X msg 373 90 learn 0;
#X msg 373 270 print;
#X obj 95 87 adc~;
#X obj 113 431 spigot;
#N canvas 366 126 604 404 synth 0;
#X obj 112 24 r bonk-cooked;
#X obj 112 49 unpack;
#X obj 112 99 * 12;
#X obj 112 124 div 7;
#X obj 112 74 + 1;
#X obj 112 174 mtof;
#X obj 112 224 osc~;
#X obj 112 249 cos~;
#X obj 112 149 + 47;
#X obj 209 247 line~;
#X obj 209 272 *~;
#X obj 209 297 lop~ 500;
#X obj 112 274 *~;
#X obj 103 361 dac~;
#X obj 253 165 dbtorms;
#X obj 253 115 * 0.5;
#X obj 253 140 + 50;
#X obj 211 189 f;
#X msg 173 159 bang;
#X obj 258 83 inlet;
#X obj 111 307 hip~ 5;
#X msg 34 24 0 60;
#X obj 112 199 sig~;
#X msg 209 222 \$1 \, 0 200;
#X connect 0 0 1 0;
#X connect 1 0 4 0;
#X connect 2 0 3 0;
#X connect 3 0 8 0;
#X connect 4 0 2 0;
#X connect 5 0 18 0;
#X connect 5 0 22 0;
#X connect 6 0 7 0;
#X connect 7 0 12 0;
#X connect 8 0 5 0;
#X connect 9 0 10 0;
#X connect 9 0 10 1;
#X connect 10 0 11 0;
#X connect 11 0 12 1;
#X connect 12 0 20 0;
#X connect 14 0 17 1;
#X connect 15 0 16 0;
#X connect 16 0 14 0;
#X connect 17 0 23 0;
#X connect 18 0 17 0;
#X connect 19 0 15 0;
#X connect 20 0 13 1;
#X connect 20 0 13 0;
#X connect 21 0 1 0;
#X connect 22 0 6 0;
#X connect 23 0 9 0;
#X restore 1185 354 pd synth;
#X floatatom 1185 331 0 0 0 0 - - -;
#X msg 1185 301 0;
#X msg 373 60 learn 10;
#X msg 373 120 forget;
#X msg 373 150 write templates.txt;
#X msg 1216 301 90;
#X msg 373 -90 thresh 6 50;
#X text 1086 300 output volume;
#X text 1100 318 (0-100);
#X msg 373 -30 mask 4 0.7;
#X msg 373 -60 minvel 10;
#X msg 373 240 debug 0;
#X obj 162 432 tgl 15 0 empty empty empty 0 -6 0 8 -262144 -1 -1 0
1;
#X obj 113 461 print raw;
#X text 89 397 enable printout:;
#X obj 270 375 s bonk-cooked;
#X msg 373 0 debounce 0;
#X obj 1122 21 adc~;
#X obj 930 5 loadbang;
#X msg 925 31 1;
#X obj 99 246 dac~;
#X obj 849 66 spigot;
#X obj 898 67 tgl 15 0 empty empty empty 0 -6 0 8 -262144 -1 -1 0 1
;
#X obj 849 96 print cooked;
#X obj 863 128 unpack float;
#N canvas 0 50 1366 686 JotaViewer 0;
#X obj 85 119 bng 100 250 50 0 empty empty empty 17 7 0 10 -4034 -1
-1;
#X obj 202 119 bng 100 250 50 0 empty empty empty 17 7 0 10 -257985
-1 -1;
#X obj 311 117 bng 100 250 50 0 empty empty empty 17 7 0 10 -260097
-1 -1;
#X obj 95 49 inlet;
#X obj 187 51 inlet;
#X obj 303 50 inlet;
#N canvas 686 143 450 300 sendSonic 0;
#X floatatom 163 179 0 0 0 0 - - -;
#X msg 146 153 disconnect;
#X obj 146 231 netsend 1;
#X floatatom 146 258 0 0 0 0 - - -;
#X text 203 181 Send messages to "foo" on remote machine;
#X msg 146 126 connect bug 3000;
#X msg 327 78 connect localhost;
#X obj 104 49 inlet;
#X obj 178 42 inlet;
#X msg 163 205 send \$1;
#X msg 146 99 connect 192.168.0.130 5555;
#X connect 0 0 9 0;
#X connect 1 0 2 0;
#X connect 2 0 3 0;
#X connect 5 0 2 0;
#X connect 6 0 2 0;
#X connect 7 0 0 0;
#X connect 8 0 10 0;
#X connect 9 0 2 0;
#X connect 10 0 2 0;
#X restore 412 699 pd sendSonic;
#X obj 428 646 bng 15 250 50 0 empty empty empty 17 7 0 10 -262144
-1 -1;
#X obj 430 114 bng 100 250 50 0 empty empty empty 17 7 0 10 -258113
-1 -1;
#X obj 432 55 inlet;
#N canvas 4 50 803 732 superViewer 0;
#X floatatom 273 248 0 0 0 0 - - -;
#X obj 229 134 gemhead;
#X obj 35 301 gemwin;
#X msg 33 88 create;
#X msg 39 115 destroy;
#X msg 65 181 1;
#X msg 69 205 0;
#X obj 273 189 metro 20;
#X obj 229 288 rotateXYZ;
#N canvas 87 154 247 179 Gem.init 0;
#X obj 118 46 loadbang;
#X msg 118 81 reset;
#X obj 118 113 outlet;
#X connect 0 0 1 0;
#X connect 1 0 2 0;
#X restore 65 278 pd Gem.init;
#X obj 255 317 loadbang;
#X obj 273 212 i;
#X obj 305 212 + 1;
#X obj 335 212 % 360;
#X msg 275 351 font ../data/vera.ttf;
#X msg 331 307 \$1;
#X obj 230 374 text3d \$1;
#X floatatom 303 281 5 0 0 0 - - -, f 5;
#X obj 276 47 inlet;
#X obj 358 49 inlet;
#X obj 71 46 inlet;
#X obj 127 45 inlet;
#X obj 229 179 translateXYZ 0 -5 -3.5;
#X obj 211 156 color;
#X msg 463 109 \$1 0 0;
#X obj 460 74 / 100;
#X obj 518 81 * 1.8;
#X connect 0 0 8 2;
#X connect 1 0 23 0;
#X connect 3 0 2 0;
#X connect 4 0 2 0;
#X connect 5 0 2 0;
#X connect 6 0 2 0;
#X connect 7 0 11 0;
#X connect 8 0 16 0;
#X connect 9 0 2 0;
#X connect 10 0 14 0;
#X connect 11 0 12 0;
#X connect 11 0 0 0;
#X connect 12 0 13 0;
#X connect 13 0 11 1;
#X connect 14 0 16 0;
#X connect 15 0 16 0;
#X connect 17 0 16 1;
#X connect 18 0 15 0;
#X connect 18 0 25 0;
#X connect 19 0 17 0;
#X connect 20 0 3 0;
#X connect 21 0 5 0;
#X connect 22 0 8 0;
#X connect 23 0 22 0;
#X connect 24 0 23 1;
#X connect 25 0 26 0;
#X connect 26 0 24 0;
#X restore 600 115 pd superViewer;
#X obj 561 65 bng 15 250 50 0 empty empty empty 17 7 0 10 -262144 -1
-1;
#X obj 579 64 bng 15 250 50 0 empty empty empty 17 7 0 10 -262144 -1
-1;
#X obj 602 63 hsl 128 15 0 127 0 0 empty empty empty -2 -8 0 10 -262144
-1 -1 0 1;
#X obj 513 55 inlet;
#X obj 588 32 loadbang 40;
#N canvas 0 68 803 732 superViewer 0;
#X floatatom 273 248 0 0 0 0 - - -;
#X obj 227 105 gemhead;
#X obj 35 301 gemwin;
#X msg 33 88 create;
#X msg 39 115 destroy;
#X msg 65 181 1;
#X msg 69 205 0;
#X obj 273 189 metro 20;
#X obj 229 288 rotateXYZ;
#N canvas 87 154 247 179 Gem.init 0;
#X obj 118 46 loadbang;
#X msg 118 81 reset;
#X obj 118 113 outlet;
#X connect 0 0 1 0;
#X connect 1 0 2 0;
#X restore 65 278 pd Gem.init;
#X obj 255 317 loadbang;
#X obj 273 212 i;
#X obj 305 212 + 1;
#X obj 335 212 % 360;
#X msg 275 351 font ../data/vera.ttf;
#X msg 331 307 \$1;
#X obj 230 374 text3d \$1;
#X floatatom 303 281 5 0 0 0 - - -, f 5;
#X obj 276 47 inlet;
#X obj 348 52 inlet;
#X obj 71 46 inlet;
#X obj 127 45 inlet;
#X obj 228 162 translateXYZ 0 -2 -3.5;
#X obj 209 133 color;
#X obj 470 84 / 100;
#X msg 471 119 0 \$1 \$1;
#X obj 528 91 * 4;
#X connect 0 0 8 2;
#X connect 1 0 23 0;
#X connect 3 0 2 0;
#X connect 4 0 2 0;
#X connect 5 0 2 0;
#X connect 6 0 2 0;
#X connect 7 0 11 0;
#X connect 8 0 16 0;
#X connect 9 0 2 0;
#X connect 10 0 14 0;
#X connect 11 0 12 0;
#X connect 11 0 0 0;
#X connect 12 0 13 0;
#X connect 13 0 11 1;
#X connect 14 0 16 0;
#X connect 15 0 16 0;
#X connect 17 0 16 1;
#X connect 18 0 15 0;
#X connect 18 0 24 0;
#X connect 19 0 17 0;
#X connect 20 0 3 0;
#X connect 21 0 5 0;
#X connect 22 0 8 0;
#X connect 23 0 22 0;
#X connect 24 0 26 0;
#X connect 25 0 23 1;
#X connect 26 0 25 0;
#X restore 602 166 pd superViewer;
#X obj 748 58 inlet;
#N canvas 4 50 803 732 superViewer 0;
#X floatatom 273 248 0 0 0 0 - - -;
#X obj 227 105 gemhead;
#X obj 35 301 gemwin;
#X msg 33 88 create;
#X msg 39 115 destroy;
#X msg 65 181 1;
#X msg 69 205 0;
#X obj 273 189 metro 20;
#X obj 229 288 rotateXYZ;
#N canvas 87 154 247 179 Gem.init 0;
#X obj 118 46 loadbang;
#X msg 118 81 reset;
#X obj 118 113 outlet;
#X connect 0 0 1 0;
#X connect 1 0 2 0;
#X restore 65 278 pd Gem.init;
#X obj 255 317 loadbang;
#X obj 273 212 i;
#X obj 305 212 + 1;
#X obj 335 212 % 360;
#X msg 275 351 font ../data/vera.ttf;
#X msg 331 307 \$1;
#X obj 230 374 text3d \$1;
#X floatatom 303 281 5 0 0 0 - - -, f 5;
#X obj 276 47 inlet;
#X obj 348 52 inlet;
#X obj 71 46 inlet;
#X obj 127 45 inlet;
#X obj 209 133 color;
#X obj 470 84 / 100;
#X obj 528 91 * 4;
#X obj 228 163 translateXYZ 0 1 -3.5;
#X msg 471 119 0 \$1 0.2;
#X connect 0 0 8 2;
#X connect 1 0 22 0;
#X connect 3 0 2 0;
#X connect 4 0 2 0;
#X connect 5 0 2 0;
#X connect 6 0 2 0;
#X connect 7 0 11 0;
#X connect 8 0 16 0;
#X connect 9 0 2 0;
#X connect 10 0 14 0;
#X connect 11 0 12 0;
#X connect 11 0 0 0;
#X connect 12 0 13 0;
#X connect 13 0 11 1;
#X connect 14 0 16 0;
#X connect 15 0 16 0;
#X connect 17 0 16 1;
#X connect 18 0 15 0;
#X connect 18 0 23 0;
#X connect 19 0 17 0;
#X connect 20 0 3 0;
#X connect 21 0 5 0;
#X connect 22 0 25 0;
#X connect 23 0 24 0;
#X connect 24 0 26 0;
#X connect 25 0 8 0;
#X connect 26 0 22 1;
#X restore 604 213 pd superViewer;
#X obj 804 60 inlet;
#N canvas 4 50 803 732 superViewer 0;
#X floatatom 273 248 0 0 0 0 - - -;
#X obj 227 105 gemhead;
#X obj 35 301 gemwin;
#X msg 33 88 create;
#X msg 39 115 destroy;
#X msg 65 181 1;
#X msg 69 205 0;
#X obj 273 189 metro 20;
#X obj 229 288 rotateXYZ;
#N canvas 87 154 247 179 Gem.init 0;
#X obj 118 46 loadbang;
#X msg 118 81 reset;
#X obj 118 113 outlet;
#X connect 0 0 1 0;
#X connect 1 0 2 0;
#X restore 65 278 pd Gem.init;
#X obj 255 317 loadbang;
#X obj 273 212 i;
#X obj 305 212 + 1;
#X obj 335 212 % 360;
#X msg 275 351 font ../data/vera.ttf;
#X msg 331 307 \$1;
#X obj 230 374 text3d \$1;
#X floatatom 303 281 5 0 0 0 - - -, f 5;
#X obj 276 47 inlet;
#X obj 348 52 inlet;
#X obj 71 46 inlet;
#X obj 127 45 inlet;
#X obj 209 133 color;
#X obj 470 84 / 100;
#X obj 528 91 * 4;
#X obj 228 163 translateXYZ 0 4 -3.5;
#X msg 468 117 0.9 \$1 1;
#X connect 0 0 8 2;
#X connect 1 0 22 0;
#X connect 3 0 2 0;
#X connect 4 0 2 0;
#X connect 5 0 2 0;
#X connect 6 0 2 0;
#X connect 7 0 11 0;
#X connect 8 0 16 0;
#X connect 9 0 2 0;
#X connect 10 0 14 0;
#X connect 11 0 12 0;
#X connect 11 0 0 0;
#X connect 12 0 13 0;
#X connect 13 0 11 1;
#X connect 14 0 16 0;
#X connect 15 0 16 0;
#X connect 17 0 16 1;
#X connect 18 0 15 0;
#X connect 18 0 23 0;
#X connect 19 0 17 0;
#X connect 20 0 3 0;
#X connect 21 0 5 0;
#X connect 22 0 25 0;
#X connect 23 0 24 0;
#X connect 24 0 26 0;
#X connect 25 0 8 0;
#X connect 26 0 22 1;
#X restore 607 249 pd superViewer;
#X obj 859 57 inlet;
#X floatatom 552 117 5 0 0 0 - - -, f 5;
#X floatatom 551 166 5 0 0 0 - - -, f 5;
#X floatatom 552 214 5 0 0 0 - - -, f 5;
#X floatatom 552 245 5 0 0 0 - - -, f 5;
#X obj 547 297 moses 14;
#X text 711 248 knock;
#N canvas 429 266 450 300 compareValues 0;
#N canvas 310 125 450 300 storeValues 0;
#X obj 101 58 inlet;
#X obj 93 209 f;
#X floatatom 111 165 5 0 0 0 - - -, f 5;
#X obj 89 24 bng 15 250 50 0 empty empty empty 17 7 0 10 -262144 -1
-1;
#X obj 93 101 route bang;
#X msg 92 127 1;
#X msg 131 128 0;
#X floatatom 106 239 5 0 0 0 - - -, f 5;
#X msg 169 55 nha;
#X obj 182 29 inlet;
#X obj 99 270 outlet;
#X text 185 51 reset value;
#X text 111 22 save bang;
#X connect 0 0 4 0;
#X connect 1 0 7 0;
#X connect 1 0 10 0;
#X connect 2 0 1 0;
#X connect 3 0 4 0;
#X connect 4 0 5 0;
#X connect 4 1 6 0;
#X connect 5 0 2 0;
#X connect 6 0 2 0;
#X connect 8 0 4 0;
#X connect 9 0 8 0;
#X restore 48 96 pd storeValues;
#X obj 51 49 inlet;
#N canvas 310 125 450 300 storeValues 0;
#X obj 101 58 inlet;
#X obj 93 209 f;
#X floatatom 111 165 5 0 0 0 - - -, f 5;
#X obj 89 24 bng 15 250 50 0 empty empty empty 17 7 0 10 -262144 -1
-1;
#X obj 93 101 route bang;
#X msg 92 127 1;
#X msg 131 128 0;
#X floatatom 106 239 5 0 0 0 - - -, f 5;
#X msg 169 55 nha;
#X obj 182 29 inlet;
#X obj 99 270 outlet;
#X text 185 51 reset value;
#X text 111 22 save bang;
#X connect 0 0 4 0;
#X connect 1 0 7 0;
#X connect 1 0 10 0;
#X connect 2 0 1 0;
#X connect 3 0 4 0;
#X connect 4 0 5 0;
#X connect 4 1 6 0;
#X connect 5 0 2 0;
#X connect 6 0 2 0;
#X connect 8 0 4 0;
#X connect 9 0 8 0;
#X restore 145 94 pd storeValues;
#X obj 143 51 inlet;
#N canvas 310 125 450 300 storeValues 0;
#X obj 101 58 inlet;
#X obj 93 209 f;
#X floatatom 111 165 5 0 0 0 - - -, f 5;
#X obj 89 24 bng 15 250 50 0 empty empty empty 17 7 0 10 -262144 -1
-1;
#X obj 93 101 route bang;
#X msg 92 127 1;
#X msg 131 128 0;
#X floatatom 106 239 5 0 0 0 - - -, f 5;
#X msg 169 55 nha;
#X obj 182 29 inlet;
#X obj 99 270 outlet;
#X text 185 51 reset value;
#X text 111 22 save bang;
#X connect 0 0 4 0;
#X connect 1 0 7 0;
#X connect 1 0 10 0;
#X connect 2 0 1 0;
#X connect 3 0 4 0;
#X connect 4 0 5 0;
#X connect 4 1 6 0;
#X connect 5 0 2 0;
#X connect 6 0 2 0;
#X connect 8 0 4 0;
#X connect 9 0 8 0;
#X restore 241 91 pd storeValues;
#X obj 239 48 inlet;
#N canvas 310 125 450 300 storeValues 0;
#X obj 101 58 inlet;
#X obj 93 209 f;
#X floatatom 111 165 5 0 0 0 - - -, f 5;
#X obj 89 24 bng 15 250 50 0 empty empty empty 17 7 0 10 -262144 -1
-1;
#X obj 93 101 route bang;
#X msg 92 127 1;
#X msg 131 128 0;
#X floatatom 106 239 5 0 0 0 - - -, f 5;
#X msg 169 55 nha;
#X obj 182 29 inlet;
#X obj 99 270 outlet;
#X text 185 51 reset value;
#X text 111 22 save bang;
#X connect 0 0 4 0;
#X connect 1 0 7 0;
#X connect 1 0 10 0;
#X connect 2 0 1 0;
#X connect 3 0 4 0;
#X connect 4 0 5 0;
#X connect 4 1 6 0;
#X connect 5 0 2 0;
#X connect 6 0 2 0;
#X connect 8 0 4 0;
#X connect 9 0 8 0;
#X restore 343 88 pd storeValues;
#X obj 341 45 inlet;
#X obj 53 146 outlet;
#X obj 139 145 outlet;
#X obj 241 135 outlet;
#X obj 327 134 outlet;
#X connect 0 0 8 0;
#X connect 1 0 0 0;
#X connect 1 0 2 1;
#X connect 1 0 4 1;
#X connect 1 0 6 1;
#X connect 2 0 9 0;
#X connect 3 0 2 0;
#X connect 3 0 0 1;
#X connect 4 0 10 0;
#X connect 5 0 4 0;
#X connect 5 0 2 1;
#X connect 5 0 6 1;
#X connect 6 0 11 0;
#X connect 7 0 6 0;
#X connect 7 0 4 1;
#X connect 7 0 2 1;
#X connect 7 0 0 1;
#X restore 216 254 pd compareValues;
#X floatatom 147 308 5 0 0 0 - - -, f 5;
#X floatatom 244 305 5 0 0 0 - - -, f 5;
#X floatatom 332 304 5 0 0 0 - - -, f 5;
#X floatatom 433 301 5 0 0 0 - - -, f 5;
#X obj 639 517 bng 100 250 50 0 empty empty empty 17 7 0 10 -258113
-1 -1;
#X obj 752 519 bng 100 250 50 0 empty empty empty 17 7 0 10 -191407
-1 -1;
#X text 652 501 slap;
#X obj 436 350 f;
#X obj 435 325 select 1;
#X obj 246 361 f;
#X obj 245 336 select 1;
#X obj 152 364 f;
#X obj 151 339 select 1;
#X obj 334 359 f;
#X obj 333 334 select 1;
#X text 124 93 finger;
#X text 244 91 knock;
#X text 347 90 punch;
#X text 478 95 slap;
#X text 13 154 gesture classifier;
#X text 698 27 gesture spectral filtering;
#N canvas 0 50 1280 696 delayComparisonSlap 0;
#X obj 231 111 bng 100 250 50 0 empty empty empty 17 7 0 10 -258113
-1 -1;
#X obj 178 261 == \$1 \$2;
#X floatatom 176 304 5 0 0 0 - - -, f 5;
#X obj 205 231 tgl 15 0 empty empty empty 17 7 0 10 -262144 -1 -1 0
1;
#X floatatom 235 244 5 0 0 0 - - -, f 5;
#X obj 167 103 f;
#X floatatom 168 130 5 0 0 0 - - -, f 5;
#X obj 109 111 bng 15 250 50 0 empty empty empty 17 7 0 10 -262144
-1 -1;
#X obj 225 298 bng 15 250 50 0 empty empty empty 17 7 0 10 -262144
-1 -1;
#X msg 234 222 0;
#X obj 170 351 select 1;
#X msg 226 80 1;
#X obj 362 88 bang;
#X obj 89 145 delay 100;
#X obj 146 27 inlet;
#X text 134 6 gestures;
#X obj 264 26 inlet;
#X text 258 8 banged moses value filtering;
#X obj 147 388 outlet;
#X obj 205 386 outlet;
#X obj 369 173 loadbang;
#X connect 0 0 3 0;
#X connect 1 0 2 0;
#X connect 1 0 8 0;
#X connect 2 0 10 0;
#X connect 3 0 4 0;
#X connect 4 0 1 1;
#X connect 5 0 6 0;
#X connect 6 0 1 0;
#X connect 7 0 13 0;
#X connect 8 0 9 0;
#X connect 9 0 3 0;
#X connect 9 0 5 1;
#X connect 10 0 18 0;
#X connect 10 1 19 0;
#X connect 11 0 5 1;
#X connect 11 0 7 0;
#X connect 12 0 11 0;
#X connect 13 0 5 0;
#X connect 14 0 0 0;
#X connect 16 0 12 0;
#X connect 20 0 9 0;
#X restore 599 412 pd delayComparisonSlap;
#X text 796 492 not slap / punch?;
#X obj 18 518 bng 100 250 50 0 empty empty empty 17 7 0 10 -4034 -1
-1;
#X obj 121 517 bng 100 250 50 0 empty empty empty 17 7 0 10 -191407
-1 -1;
#N canvas 0 68 1280 732 delayComparisonFingerSimple 0;
#X obj 63 99 bng 100 250 50 0 empty empty empty 17 7 0 10 -258113 -1
-1;
#X floatatom 176 304 5 0 0 0 - - -, f 5;
#X obj 225 298 bng 15 250 50 0 empty empty empty 17 7 0 10 -262144
-1 -1;
#X obj 170 380 select 1;
#X obj 475 75 bang;
#X obj 146 27 inlet;
#X text 134 6 gestures;
#X obj 264 26 inlet;
#X text 258 8 banged moses value filtering;
#X obj 147 417 outlet;
#X obj 205 415 outlet;
#X obj 369 173 loadbang;
#X obj 431 158 spigot;
#X obj 465 134 tgl 15 0 empty empty empty 17 7 0 10 -262144 -1 -1 0
1;
#X obj 435 180 bang;
#X msg 471 181 0;
#X msg 504 182 1;
#X obj 418 210 delay 1020;
#X msg 116 240 1;
#X msg 234 105 0;
#X msg 273 106 1;
#X obj 254 164 f;
#X obj 176 260 == \$1 \$2;
#X floatatom 253 231 5 0 0 0 - - -, f 5;
#X connect 0 0 18 0;
#X connect 1 0 3 0;
#X connect 2 0 20 0;
#X connect 3 0 9 0;
#X connect 3 1 10 0;
#X connect 4 0 12 0;
#X connect 5 0 0 0;
#X connect 7 0 19 0;
#X connect 12 0 14 0;
#X connect 13 0 12 1;
#X connect 14 0 15 0;
#X connect 14 0 17 0;
#X connect 15 0 13 0;
#X connect 16 0 13 0;
#X connect 17 0 16 0;
#X connect 18 0 22 0;
#X connect 19 0 21 0;
#X connect 20 0 21 0;
#X connect 21 0 22 1;
#X connect 21 0 23 0;
#X connect 22 0 1 0;
#X connect 22 0 2 0;
#X restore 35 404 pd delayComparisonFingerSimple;
#X text 37 494 finger;
#N canvas 0 68 1280 732 delayComparisonKnock 0;
#X obj 63 99 bng 100 250 50 0 empty empty empty 17 7 0 10 -258113 -1
-1;
#X floatatom 176 304 5 0 0 0 - - -, f 5;
#X obj 225 298 bng 15 250 50 0 empty empty empty 17 7 0 10 -262144
-1 -1;
#X obj 170 380 select 1;
#X obj 475 75 bang;
#X obj 146 27 inlet;
#X text 134 6 gestures;
#X obj 264 26 inlet;
#X text 258 8 banged moses value filtering;
#X obj 147 417 outlet;
#X obj 205 415 outlet;
#X obj 369 173 loadbang;
#X obj 431 158 spigot;
#X obj 465 134 tgl 15 0 empty empty empty 17 7 0 10 -262144 -1 -1 0
1;
#X obj 435 180 bang;
#X msg 471 181 0;
#X msg 504 182 1;
#X obj 418 210 delay 1020;
#X msg 116 240 1;
#X msg 234 105 0;
#X msg 273 106 1;
#X obj 254 164 f;
#X obj 176 260 == \$1 \$2;
#X floatatom 253 231 5 0 0 0 - - -, f 5;
#X connect 0 0 18 0;
#X connect 1 0 3 0;
#X connect 2 0 20 0;
#X connect 3 0 9 0;
#X connect 3 1 10 0;
#X connect 4 0 12 0;
#X connect 5 0 0 0;
#X connect 7 0 19 0;
#X connect 12 0 14 0;
#X connect 13 0 12 1;
#X connect 14 0 15 0;
#X connect 14 0 17 0;
#X connect 15 0 13 0;
#X connect 16 0 13 0;
#X connect 17 0 16 0;
#X connect 18 0 22 0;
#X connect 19 0 21 0;
#X connect 20 0 21 0;
#X connect 21 0 22 1;
#X connect 21 0 23 0;
#X connect 22 0 1 0;
#X connect 22 0 2 0;
#X restore 248 407 pd delayComparisonKnock;
#X obj 225 518 bng 100 250 50 0 empty empty empty 17 7 0 10 -257985
-1 -1;
#X text 281 493 knock;
#X obj 329 517 bng 100 250 50 0 empty empty empty 17 7 0 10 -191407
-1 -1;
#X obj 432 519 bng 100 250 50 0 empty empty empty 17 7 0 10 -260097
-1 -1;
#X text 468 492 punch;
#X obj 533 519 bng 100 250 50 0 empty empty empty 17 7 0 10 -191407
-1 -1;
#X obj 768 297 moses 50;
#X obj 722 325 f;
#X obj 809 325 bng 15 250 50 0 empty empty empty 17 7 0 10 -262144
-1 -1;
#X obj 756 360 moses 25;
#X floatatom 711 360 5 0 0 0 - - -, f 5;
#X msg 231 636 1;
#X obj 247 667 spigot;
#X obj 279 647 tgl 15 0 empty empty empty 17 7 0 10 -262144 -1 -1 0
1;
#X msg 270 625 0;
#X msg 371 625 1;
#X obj 259 689 bang;
#X obj 301 691 delay 100;
#X obj 967 512 bng 100 250 50 0 empty empty empty 17 7 0 10 -4032 -1
-1;
#X msg 579 673 3;
#X msg 521 672 2;
#N canvas 0 50 523 483 evalSlap 0;
#X obj 54 17 inlet;
#X obj 127 118 f;
#X floatatom 122 152 5 0 0 0 - - -, f 5;
#X msg 95 46 1;
#X msg 134 46 0;
#X obj 295 111 f;
#X floatatom 290 145 5 0 0 0 - - -, f 5;
#X msg 263 39 1;
#X msg 302 39 0;
#X obj 257 12 inlet;
#X obj 246 180 == 1;
#X obj 243 232 outlet;
#X obj 191 205 select 0;
#X obj 137 234 outlet;
#X obj 162 182 bng 15 250 50 0 empty empty empty 17 7 0 10 -262144
-1 -1;
#X obj 254 276 bng 100 250 50 0 empty empty empty 17 7 0 10 -258113
-1 -1;
#X text 267 260 slap;
#X obj 47 278 bng 100 250 50 0 empty empty empty 17 7 0 10 -260097
-1 -1;
#X text 83 251 punch;
#X obj 148 278 bng 100 250 50 0 empty empty empty 17 7 0 10 -191407
-1 -1;
#X obj 92 87 spigot;
#X obj 37 61 tgl 15 0 empty empty empty 17 7 0 10 -262144 -1 -1 1 1
;
#X obj 9 38 loadbang;
#X msg 2 68 1;
#X msg 4 92 0;
#X obj 89 118 bng 15 250 50 0 empty empty empty 17 7 0 10 -262144 -1
-1;
#X obj 339 117 bng 15 250 50 0 empty empty empty 17 7 0 10 -262144
-1 -1;
#X obj 155 73 delay 2000;
#X obj 18 180 delay 2600;
#X connect 0 0 3 0;
#X connect 1 0 2 0;
#X connect 3 0 20 0;
#X connect 4 0 1 1;
#X connect 5 0 6 0;
#X connect 6 0 10 0;
#X connect 7 0 5 1;
#X connect 8 0 5 1;
#X connect 9 0 7 0;
#X connect 10 0 12 0;
#X connect 10 0 14 0;
#X connect 12 0 13 0;
#X connect 12 0 17 0;
#X connect 12 1 11 0;
#X connect 12 1 15 0;
#X connect 14 0 8 0;
#X connect 20 0 1 0;
#X connect 20 0 25 0;
#X connect 21 0 20 1;
#X connect 22 0 23 0;
#X connect 23 0 21 0;
#X connect 24 0 21 0;
#X connect 25 0 24 0;
#X connect 25 0 28 0;
#X connect 25 0 27 0;
#X connect 27 0 5 0;
#X connect 27 0 26 0;
#X connect 28 0 23 0;
#X restore 999 633 pd evalSlap;
#N canvas 258 159 450 300 comparebangs 0;
#X obj 88 73 inlet;
#X obj 297 63 inlet;
#X obj 134 138 spigot;
#X obj 148 165 bng 15 250 50 0 empty empty empty 17 7 0 10 -262144
-1 -1;
#X obj 176 105 tgl 15 0 empty empty empty 17 7 0 10 -262144 -1 -1 1
1;
#X msg 190 67 1;
#X msg 105 19 0;
#X obj 156 26 delay 1000;
#X obj 108 202 delay 700;
#X obj 297 128 tgl 15 0 empty empty empty 17 7 0 10 -262144 -1 -1 0
1;
#X msg 225 66 0;
#X msg 298 98 1;
#X floatatom 297 155 5 0 0 0 - - -, f 5;
#X floatatom 223 272 5 0 0 0 - - -, f 5;
#X obj 205 171 bng 15 250 50 0 empty empty empty 17 7 0 10 -262144
-1 -1;
#X floatatom 275 208 5 0 0 0 - - -, f 5;
#X floatatom 207 210 5 0 0 0 - - -, f 5;
#X msg 206 189 1;
#X obj 222 236 ==;
#X obj 323 332 bng 100 250 50 0 empty empty empty 17 7 0 10 -258113
-1 -1;
#X text 336 316 slap;
#X obj 116 334 bng 100 250 50 0 empty empty empty 17 7 0 10 -260097
-1 -1;
#X text 152 307 punch;
#X obj 217 334 bng 100 250 50 0 empty empty empty 17 7 0 10 -191407
-1 -1;
#X obj 204 301 select 0;
#X obj 30 333 outlet;
#X obj 433 339 outlet;
#X obj 241 22 loadbang;
#X connect 0 0 2 0;
#X connect 1 0 11 0;
#X connect 2 0 3 0;
#X connect 3 0 6 0;
#X connect 3 0 7 0;
#X connect 3 0 8 0;
#X connect 4 0 2 1;
#X connect 5 0 4 0;
#X connect 6 0 4 0;
#X connect 7 0 5 0;
#X connect 7 0 10 0;
#X connect 8 0 14 0;
#X connect 9 0 12 0;
#X connect 10 0 9 0;
#X connect 11 0 9 0;
#X connect 12 0 15 0;
#X connect 13 0 24 0;
#X connect 14 0 17 0;
#X connect 15 0 18 1;
#X connect 16 0 18 0;
#X connect 17 0 16 0;
#X connect 18 0 13 0;
#X connect 24 0 21 0;
#X connect 24 0 25 0;
#X connect 24 1 19 0;
#X connect 24 1 26 0;
#X connect 27 0 5 0;
#X restore 607 633 pd comparebangs;
#X text 1085 632 previous code than compareBangs;
#N canvas 258 159 670 300 comparebangsPunch 0;
#X obj 88 73 inlet;
#X obj 297 63 inlet;
#X obj 134 138 spigot;
#X obj 148 165 bng 15 250 50 0 empty empty empty 17 7 0 10 -262144
-1 -1;
#X obj 176 105 tgl 15 0 empty empty empty 17 7 0 10 -262144 -1 -1 1
1;
#X msg 190 67 1;
#X msg 105 19 0;
#X obj 156 26 delay 1000;
#X obj 108 202 delay 700;
#X obj 297 128 tgl 15 0 empty empty empty 17 7 0 10 -262144 -1 -1 0
1;
#X msg 225 66 0;
#X msg 298 98 1;
#X floatatom 297 155 5 0 0 0 - - -, f 5;
#X floatatom 223 272 5 0 0 0 - - -, f 5;
#X obj 205 171 bng 15 250 50 0 empty empty empty 17 7 0 10 -262144
-1 -1;
#X floatatom 275 208 5 0 0 0 - - -, f 5;
#X floatatom 207 210 5 0 0 0 - - -, f 5;
#X msg 206 189 1;
#X obj 222 236 ==;
#X obj 323 332 bng 100 250 50 0 empty empty empty 17 7 0 10 -260097
-1 -1;
#X obj 116 334 bng 100 250 50 0 empty empty empty 17 7 0 10 -257985
-1 -1;
#X obj 217 334 bng 100 250 50 0 empty empty empty 17 7 0 10 -191407
-1 -1;
#X obj 204 301 select 0;
#X obj 30 333 outlet;
#X obj 433 339 outlet;
#X text 336 316 punch;
#X text 151 307 knock;
#X obj 204 114 loadbang;
#X connect 0 0 2 0;
#X connect 1 0 11 0;
#X connect 2 0 3 0;
#X connect 3 0 6 0;
#X connect 3 0 7 0;
#X connect 3 0 8 0;
#X connect 4 0 2 1;
#X connect 5 0 4 0;
#X connect 6 0 4 0;
#X connect 7 0 5 0;
#X connect 7 0 10 0;
#X connect 8 0 14 0;
#X connect 9 0 12 0;
#X connect 10 0 9 0;
#X connect 11 0 9 0;
#X connect 12 0 15 0;
#X connect 13 0 22 0;
#X connect 14 0 17 0;
#X connect 15 0 18 1;
#X connect 16 0 18 0;
#X connect 17 0 16 0;
#X connect 18 0 13 0;
#X connect 22 0 20 0;
#X connect 22 0 23 0;
#X connect 22 1 19 0;
#X connect 22 1 24 0;
#X connect 27 0 5 0;
#X restore 445 636 pd comparebangsPunch;
#X msg 90 248 1;
#X msg 365 245 2;
#X msg 441 244 3;
#X connect 0 0 28 0;
#X connect 0 0 82 0;
#X connect 1 0 28 1;
#X connect 1 0 82 0;
#X connect 2 0 28 2;
#X connect 2 0 83 0;
#X connect 3 0 0 0;
#X connect 4 0 1 0;
#X connect 5 0 2 0;
#X connect 7 0 6 1;
#X connect 8 0 28 3;
#X connect 8 0 84 0;
#X connect 9 0 8 0;
#X connect 11 0 10 0;
#X connect 11 0 16 0;
#X connect 11 0 18 0;
#X connect 11 0 20 0;
#X connect 12 0 10 1;
#X connect 12 0 16 1;
#X connect 12 0 18 1;
#X connect 12 0 20 1;
#X connect 13 0 10 3;
#X connect 13 0 16 3;
#X connect 13 0 18 3;
#X connect 13 0 20 3;
#X connect 14 0 10 2;
#X connect 14 0 22 0;
#X connect 15 0 13 0;
#X connect 17 0 16 2;
#X connect 17 0 23 0;
#X connect 19 0 18 2;
#X connect 19 0 24 0;
#X connect 21 0 20 2;
#X connect 21 0 25 0;
#X connect 22 0 63 0;
#X connect 25 0 26 0;
#X connect 25 0 64 1;
#X connect 26 1 50 1;
#X connect 26 1 54 1;
#X connect 26 1 56 1;
#X connect 28 0 29 0;
#X connect 28 1 30 0;
#X connect 28 2 31 0;
#X connect 28 3 32 0;
#X connect 29 0 41 0;
#X connect 30 0 39 0;
#X connect 31 0 43 0;
#X connect 32 0 37 0;
#X connect 33 0 79 1;
#X connect 36 0 50 0;
#X connect 36 0 56 0;
#X connect 37 0 36 0;
#X connect 37 1 36 1;
#X connect 38 0 50 0;
#X connect 38 0 56 0;
#X connect 39 0 38 0;
#X connect 39 1 38 1;
#X connect 40 0 50 0;
#X connect 40 0 54 0;
#X connect 41 0 40 0;
#X connect 41 1 40 1;
#X connect 43 0 42 0;
#X connect 43 1 42 1;
#X connect 50 0 33 0;
#X connect 50 1 34 0;
#X connect 52 0 68 0;
#X connect 54 0 52 0;
#X connect 54 1 53 0;
#X connect 56 0 57 0;
#X connect 56 1 59 0;
#X connect 57 0 68 0;
#X connect 57 0 81 0;
#X connect 60 0 79 0;
#X connect 60 0 81 1;
#X connect 63 1 65 0;
#X connect 64 0 66 0;
#X connect 64 0 67 0;
#X connect 65 0 64 0;
#X connect 66 0 60 0;
#X connect 68 0 69 0;
#X connect 69 0 73 0;
#X connect 69 0 75 0;
#X connect 70 0 69 1;
#X connect 71 0 70 0;
#X connect 72 0 70 0;
#X connect 73 0 71 0;
#X connect 73 0 74 0;
#X connect 74 0 72 0;
#X connect 76 0 69 0;
#X connect 77 0 69 0;
#X connect 79 0 77 0;
#X connect 79 1 76 0;
#X connect 81 1 77 0;
#X connect 82 0 6 0;
#X connect 83 0 6 0;
#X connect 84 0 6 0;
#X restore 850 208 pd JotaViewer;
#N canvas 0 50 1280 732 filtering 0;
#X obj 141 59 inlet~;
#X obj 71 230 outlet~;
#X obj 191 236 outlet~;
#X obj 74 121 lop~ 40;
#X msg 22 41 40;
#X obj 19 19 loadbang;
#X floatatom 20 65 5 0 0 0 - - -, f 5;
#X obj 73 146 lop~ 40;
#X obj 72 170 lop~ 40;
#X obj 71 195 lop~ 40;
#X floatatom 201 70 0 0 0 0 - - -;
#X text 233 71 <-- center frequency;
#X floatatom 250 92 0 0 0 0 - - -;
#X msg 200 38 690;
#X msg 251 47 100;
#X obj 169 118 bp~ 690 100;
#X obj 168 148 bp~ 690 100;
#X obj 167 175 bp~ 690 100;
#X obj 375 238 outlet~;
#X floatatom 383 83 0 0 0 0 - - -;
#X text 417 73 <-- center frequency;
#X floatatom 434 94 0 0 0 0 - - -;
#X msg 435 49 100;
#X obj 353 120 bp~ 690 100;
#X obj 352 150 bp~ 690 100;
#X obj 351 177 bp~ 690 100;
#X msg 383 53 2360;
#X obj 575 228 outlet~;
#X floatatom 583 73 0 0 0 0 - - -;
#X text 617 63 <-- center frequency;
#X floatatom 634 84 0 0 0 0 - - -;
#X msg 635 39 100;
#X obj 553 110 bp~ 690 100;
#X obj 552 140 bp~ 690 100;
#X obj 551 167 bp~ 690 100;
#X msg 582 42 16000;
#X connect 0 0 3 0;
#X connect 0 0 15 0;
#X connect 0 0 23 0;
#X connect 0 0 32 0;
#X connect 3 0 7 0;
#X connect 4 0 6 0;
#X connect 5 0 4 0;
#X connect 5 0 13 0;
#X connect 5 0 14 0;
#X connect 5 0 26 0;
#X connect 5 0 22 0;
#X connect 5 0 35 0;
#X connect 5 0 31 0;
#X connect 6 0 3 1;
#X connect 6 0 7 1;
#X connect 6 0 8 1;
#X connect 6 0 9 1;
#X connect 7 0 8 0;
#X connect 8 0 9 0;
#X connect 9 0 1 0;
#X connect 10 0 15 1;
#X connect 10 0 16 1;
#X connect 10 0 17 1;
#X connect 12 0 15 2;
#X connect 12 0 16 2;
#X connect 12 0 17 2;
#X connect 13 0 10 0;
#X connect 14 0 12 0;
#X connect 15 0 16 0;
#X connect 16 0 17 0;
#X connect 17 0 2 0;
#X connect 19 0 23 1;
#X connect 19 0 24 1;
#X connect 19 0 25 1;
#X connect 21 0 23 2;
#X connect 21 0 24 2;
#X connect 21 0 25 2;
#X connect 22 0 21 0;
#X connect 23 0 24 0;
#X connect 24 0 25 0;
#X connect 25 0 18 0;
#X connect 26 0 19 0;
#X connect 28 0 32 1;
#X connect 28 0 33 1;
#X connect 28 0 34 1;
#X connect 30 0 32 2;
#X connect 30 0 33 2;
#X connect 30 0 34 2;
#X connect 31 0 30 0;
#X connect 32 0 33 0;
#X connect 33 0 34 0;
#X connect 34 0 27 0;
#X connect 35 0 28 0;
#X restore 1111 91 pd filtering;
#X obj 1109 133 env~;
#X floatatom 1107 171 5 0 0 0 - - -, f 5;
#X obj 1160 132 env~;
#X floatatom 1161 170 5 0 0 0 - - -, f 5;
#X obj 836 161 select 0 1 2 3 4 5 6 7;
#X obj 1201 133 env~;
#X floatatom 1202 171 5 0 0 0 - - -, f 5;
#X obj 1253 134 env~;
#X floatatom 1254 172 5 0 0 0 - - -, f 5;
#X msg 373 180 read templates.txt;
#X obj 549 27 bng 15 250 50 0 empty learnOn learnOn 17 7 0 10 -262144
-1 -1;
#X obj 549 62 bng 15 250 50 0 empty learnOff learnOff 17 7 0 10 -262144
-1 -1;
#X obj 549 97 bng 15 250 50 0 empty forgetTemplate forgetTemplate 17
7 0 10 -262144 -1 -1;
#X obj 549 132 bng 15 250 50 0 empty writeTemplates writeTemplates
17 7 0 10 -262144 -1 -1;
#X obj 550 168 bng 15 250 50 0 empty readTemplates readTemplates 17
7 0 10 -262144 -1 -1;
#X msg 803 -24 \; pd dsp 0 \;;
#X obj 739 -77 bng 15 250 50 0 empty on on 17 7 0 10 -262144 -1 -1
;
#X obj 741 -14 bng 15 250 50 0 empty off off 17 7 0 10 -262144 -1 -1
;
#X msg 805 -78 \; pd dsp 1 \;;
#X connect 0 0 1 0;
#X connect 1 1 23 0;
#X connect 2 0 1 0;
#X connect 3 0 1 0;
#X connect 4 0 1 0;
#X connect 5 0 1 0;
#X connect 5 0 28 0;
#X connect 5 1 28 1;
#X connect 6 0 21 0;
#X connect 8 0 7 0;
#X connect 9 0 8 0;
#X connect 10 0 1 0;
#X connect 11 0 1 0;
#X connect 12 0 1 0;
#X connect 13 0 8 0;
#X connect 14 0 1 0;
#X connect 17 0 1 0;
#X connect 18 0 1 0;
#X connect 19 0 1 0;
#X connect 20 0 6 1;
#X connect 24 0 1 0;
#X connect 26 0 27 0;
#X connect 29 0 31 0;
#X connect 29 0 32 0;
#X connect 30 0 29 1;
#X connect 32 0 39 0;
#X connect 34 0 35 0;
#X connect 34 1 37 0;
#X connect 34 2 40 0;
#X connect 34 3 42 0;
#X connect 35 0 36 0;
#X connect 36 0 33 4;
#X connect 37 0 38 0;
#X connect 38 0 33 5;
#X connect 39 0 33 0;
#X connect 39 1 33 0;
#X connect 39 2 33 1;
#X connect 39 3 33 1;
#X connect 39 4 33 2;
#X connect 39 5 33 2;
#X connect 39 6 33 3;
#X connect 39 7 33 3;
#X connect 40 0 41 0;
#X connect 41 0 33 6;
#X connect 42 0 43 0;
#X connect 43 0 33 7;
#X connect 44 0 1 0;
#X connect 45 0 10 0;
#X connect 46 0 3 0;
#X connect 47 0 11 0;
#X connect 48 0 12 0;
#X connect 49 0 44 0;
#X connect 51 0 53 0;
#X connect 52 0 50 0;
